{"title":"Arrow S04E03 Restoration 1080P WEB-DL DD5 1 H 264","uid":12619904,"size":1747130922,"categoryP":"video","categoryS":"hd___tv_shows","magnet":"?xt=urn:btih:371f4a18a86ae5ab859086e45fd6e9cbefd3c99a&amp;dn=Arrow+S04E03+Restoration+1080P+WEB-DL+DD5+1+H+264&amp;tr=udp%3A%2F%2Ftracker.leechers-paradise.org%3A6969&amp;tr=udp%3A%2F%2Fzer0day.ch%3A1337&amp;tr=udp%3A%2F%2Fopen.demonii.com%3A1337&amp;tr=udp%3A%2F%2Ftracker.coppersurfer.tk%3A6969&amp;tr=udp%3A%2F%2Fexodus.desync.com%3A6969","seeders":1,"leechers":0,"uploader":"jmanwf","files":2,"time":1445581098,"description":"The growing tension between Oliver and Diggle puts both their lives at risk when they go after Damien Darhk and a H.I.V.E. deployed meta-human. Meanwhile, Laurel talks Thea into returning to Nanda Parbat to ask her father to put Sara into the Lazarus Pit. However, Laurel is surprised when Nyssa al Ghul (recurring guest star Katrina Law) refuses to do it.\r\n\r\n\r\n\r\nVideo\r\nID : 1\r\nFormat : AVC\r\nFormat/Info : Advanced Video Codec\r\nFormat profile :   \r\nFormat settings, CABAC : Yes\r\nFormat settings, ReFrames : 4 frames\r\nCodec ID : drmi / avc1 / c608\r\nDuration : 42mn 27s\r\nBit rate : 4 974 Kbps\r\nWidth : 1 916 pixels\r\nHeight : 1 076 pixels\r\nDisplay aspect ratio : 16:9\r\nFrame rate mode : Constant\r\nFrame rate : 23.976 fps\r\nColor space : YUV\r\nChroma subsampling : 4:2:0\r\nBit depth : 8 bits\r\nScan type : Progressive\r\nBits/(Pixel*Frame) : 0.101\r\nStream size : 1.48 GiB (90%)\r\nTitle : Core Media Video\r\nLanguage : English\r\nEncoded date : UTC 2015-10-21 15:28:53\r\nTagged date : UTC 2015-10-21 15:29:01\r\nColor range : Limited\r\nColor primaries : BT.709\r\nTransfer characteristics : BT.709\r\nMatrix coefficients : BT.709\r\n\r\nAudio #1\r\nID : 2\r\nFormat : AAC\r\nFormat/Info : Advanced Audio Codec\r\nFormat profile : LC\r\nCodec ID : 40\r\nDuration : 42mn 27s\r\nSource duration : 42mn 27s\r\nBit rate mode : Variable\r\nBit rate : 160 Kbps\r\nMaximum bit rate : 240 Kbps\r\nChannel(s) : 2 channels\r\nChannel positions : Front: L R\r\nSampling rate : 48.0 KHz\r\nCompression mode : Lossy\r\nStream size : 47.1 MiB (3%)\r\nSource stream size : 47.1 MiB (3%)\r\nTitle : Core Media Audio\r\nLanguage : English\r\nEncoded date : UTC 2015-10-21 15:28:53\r\nTagged date : UTC 2015-10-21 15:29:01\r\nEncryption : iTunes\r\n\r\nAudio #2\r\nID : 4\r\nFormat : drms\r\nCodec ID : drms\r\nDuration : 42mn 27s\r\nBit rate mode : Constant\r\nBit rate : 384 Kbps\r\nSampling rate : 48.0 KHz\r\nBit depth : 16 bits\r\nStream size : 117 MiB (7%)\r\nTitle : Core Media Audio\r\nLanguage : English\r\nEncoded date : UTC 2015-10-21 15:28:53\r\nTagged date : UTC 2015-10-21 15:29:01\r\nEncryption : iTunes\r\n\r\nText\r\nID : 3\r\nFormat : p608\r\nCodec ID : p608\r\nDuration : 42mn 20s\r\nBit rate mode : Variable\r\nBit rate : 136 bps\r\nStream size : 42.1 KiB (0%)\r\nTitle : Core Media Closed Caption\r\nLanguage : English\r\nEncoded date : UTC 2015-10-21 15:28:53\r\nTagged date : UTC 2015-10-21 15:29:01\r\n\r\n\r\n \nhttps://itunes.apple.com/us/tv-season/arrow-season-4/id1027608805","torrent":{"xt":"urn:btih:371f4a18a86ae5ab859086e45fd6e9cbefd3c99a","amp;dn":"Arrow+S04E03+Restoration+1080P+WEB-DL+DD5+1+H+264","amp;tr":["udp%3A%2F%2Ftracker.leechers-paradise.org%3A6969","udp%3A%2F%2Fzer0day.ch%3A1337","udp%3A%2F%2Fopen.demonii.com%3A1337","udp%3A%2F%2Ftracker.coppersurfer.tk%3A6969","udp%3A%2F%2Fexodus.desync.com%3A6969"],"infoHash":"371f4a18a86ae5ab859086e45fd6e9cbefd3c99a","infoHashBuffer":{"type":"Buffer","data":[55,31,74,24,168,106,229,171,133,144,134,228,95,214,233,203,239,211,201,154]},"announce":[],"urlList":[]}}